<svg xmlns="http://www.w3.org/2000/svg" xmlns:xlink="http://www.w3.org/1999/xlink" viewBox="0 0 53.125 85" fill="#fff" fill-rule="evenodd" stroke="#000" stroke-linecap="round" stroke-linejoin="round"><use xlink:href="#A" x="1.563" y="2.5"/><symbol id="A" overflow="visible"><g stroke="none"><path d="M17.071 42.428s-2.533 1.283 1.762 1.65c5.176.55 7.93.458 13.656-.458 0 0 1.542.825 3.634 1.466-12.885 4.582-29.185-.275-19.053-2.658h0zm-1.652-5.956s-2.753 1.741 1.542 2.108c5.617.458 10.022.55 17.621-.733 0 0 .991.916 2.643 1.375-15.529 3.849-32.929.367-21.806-2.749h0zm30.396 10.447s1.872 1.283-2.093 2.291c-7.379 1.833-30.947 2.383-37.555 0-2.313-.825 2.093-2.016 3.524-2.199 1.432-.275 2.203-.275 2.203-.275-2.533-1.466-16.85 3.024-7.269 4.307 26.322 3.574 48.018-1.558 41.189-4.124h0zM18.282 30.24s-12.004 2.383-4.295 3.207c3.304.367 9.802.275 15.859-.092 4.956-.367 9.912-1.1 9.912-1.1s-1.762.642-2.974 1.283C24.56 36.197 1.102 35.005 7.82 32.256c5.727-2.291 10.463-2.016 10.463-2.016h0zm21.476 9.989c12.335-5.315 6.608-10.447 2.643-9.805-.991.183-1.432.366-1.432.366s.33-.55 1.101-.733c7.819-2.291 13.987 6.873-2.533 10.447 0 0 .11-.092.22-.275h0zM19.494 54.707c11.894.642 30.066-.367 30.506-5.04 0 0-.881 1.833-9.802 3.207-10.132 1.558-22.687 1.375-30.066.367 0 0 1.542 1.1 9.361 1.466h0z" fill="#4e7896"/><path d="M32.269 0s6.828 5.773-6.498 14.479c-10.683 7.056-2.423 11.088 0 15.67-6.277-4.674-10.793-8.797-7.709-12.646C22.577 11.821 35.022 9.072 32.269 0h0zm-3.524 26.3c3.194 3.024-.881 5.773-.881 5.773s8.15-3.482 4.405-7.789c-3.414-4.124-6.057-6.14 8.26-13.013 0 0-22.577 4.674-11.784 15.029h0zm-8.15 49.21v-8.981c0-2.291-1.542-3.849-5.396-3.849-2.203 0-4.075.458-5.727 1.008l.551 1.65c1.211-.367 2.753-.733 4.405-.733 2.093 0 3.084.733 3.084 2.199v1.191H16.41c-5.286 0-7.709 1.65-7.709 4.307 0 2.199 1.652 3.482 4.626 3.482 1.872 0 3.304-.733 4.626-1.649l.22 1.375h2.423 0zm-3.084-2.933c-1.101.825-2.313 1.283-3.414 1.283-1.432 0-2.313-.733-2.313-2.016s.881-2.199 4.405-2.199h1.322v2.932h0zm13.436 2.933h-3.855l-4.625-12.554h3.304l2.863 7.698.661 2.291c1.432-3.299 2.533-6.69 2.974-9.988h3.304c-.881 4.124-2.423 8.614-4.626 12.554h0zm17.842 0v-8.981c0-2.291-1.542-3.849-5.397-3.849-2.203 0-4.075.458-5.727 1.008l.441 1.65c1.322-.367 2.863-.733 4.515-.733 2.093 0 3.084.733 3.084 2.199v1.191h-1.101c-5.286 0-7.709 1.65-7.709 4.307 0 2.199 1.542 3.482 4.515 3.482 1.982 0 3.414-.733 4.736-1.649l.22 1.375h2.423 0zm-3.084-2.933c-1.101.825-2.313 1.283-3.414 1.283-1.432 0-2.313-.733-2.313-2.016s.881-2.199 4.405-2.199h1.322v2.932h0zm-40.419 5.04c-.881 1.1-2.203 1.924-3.854 2.383L0 78.534c1.101-.55 2.203-1.374 2.643-2.108.441-.641.551-1.558.551-3.666V58.465h3.304v14.112c0 2.841-.33 3.94-1.211 5.04h0z" fill="#f58219"/></g></symbol></svg>